<?xml version="1.0" encoding="iso-8859-1"?>
<!-- Generator: Adobe Illustrator 19.0.0, SVG Export Plug-In . SVG Version: 6.00 Build 0)  -->
<svg xmlns="http://www.w3.org/2000/svg" xmlns:xlink="http://www.w3.org/1999/xlink" version="1.1" id="Layer_1" x="0px" y="0px" viewBox="0 0 512 512" style="enable-background:new 0 0 512 512;" xml:space="preserve" width="512" height="512">
<g>
	<g>
		<g>
			<path style="fill:#DAD8DB;" d="M392.274,163.815H119.726v-40.081c0-4.427,3.589-8.016,8.016-8.016h256.516     c4.427,0,8.016,3.589,8.016,8.016V163.815z"/>
		</g>
		<rect x="23.532" y="147.782" style="fill:#E2A975;" width="464.935" height="320.645"/>
		<rect x="23.532" y="364.218" style="fill:#6F6571;" width="464.935" height="104.21"/>
		<rect x="23.532" y="444.379" style="fill:#5D5360;" width="464.935" height="24.048"/>
		<rect x="159.806" y="364.218" style="fill:#C3DDFF;" width="192.387" height="104.21"/>
		<rect x="159.806" y="364.218" style="fill:#A4CCFF;" width="192.387" height="23.533"/>
		<rect x="159.806" y="444.379" style="fill:#A4CCFF;" width="192.387" height="24.048"/>
		<g>
			<circle style="fill:#FFE07D;" cx="256" cy="115.718" r="72.145"/>
		</g>
		<rect x="143.774" y="332.153" style="fill:#DAD8DB;" width="224.452" height="32.065"/>
		<rect x="55.597" y="364.218" style="fill:#C3DDFF;" width="56.113" height="64.129"/>
		<rect x="55.597" y="364.218" style="fill:#A4CCFF;" width="56.113" height="24.048"/>
		<rect x="400.29" y="364.218" style="fill:#C3DDFF;" width="56.113" height="64.129"/>
		<rect x="400.29" y="364.218" style="fill:#A4CCFF;" width="56.113" height="24.048"/>
		<rect x="400.29" y="227.944" style="fill:#C3DDFF;" width="56.113" height="72.145"/>
		<rect x="400.29" y="227.944" style="fill:#A4CCFF;" width="56.113" height="24.048"/>
		<rect x="55.597" y="227.944" style="fill:#C3DDFF;" width="56.113" height="72.145"/>
		<rect x="55.597" y="227.944" style="fill:#A4CCFF;" width="56.113" height="24.048"/>
		<rect x="143.774" y="227.944" style="fill:#C3DDFF;" width="224.452" height="72.145"/>
		<rect x="143.774" y="227.944" style="fill:#A4CCFF;" width="224.452" height="24.048"/>
		<path style="fill:#FFD064;" d="M272.032,171.831c-39.845,0-72.145-32.301-72.145-72.145c0-15.828,5.157-30.419,13.799-42.314    c-18.049,13.113-29.831,34.329-29.831,58.346c0,39.844,32.3,72.145,72.145,72.145c24.017,0,45.232-11.782,58.346-29.831    C302.451,166.673,287.86,171.831,272.032,171.831z"/>
	</g>
	<g>
		<path d="M504.5,460.927h-8.532V147.782c0-4.142-3.358-7.5-7.5-7.5h-88.693v-16.548c0-8.556-6.96-15.516-15.516-15.516h-48.977    C331.488,67.807,297.386,36.073,256,36.073s-75.488,31.734-79.281,72.145h-48.977c-8.556,0-15.516,6.96-15.516,15.516v16.548    H23.532c-4.142,0-7.5,3.358-7.5,7.5v16.031c0,4.142,3.358,7.5,7.5,7.5s7.5-3.358,7.5-7.5v-8.531h155.889    c13.756,23.924,39.558,40.081,69.079,40.081s55.323-16.157,69.079-40.081h155.889v201.436H375.726v-24.564    c0-4.142-3.358-7.5-7.5-7.5H143.774c-4.142,0-7.5,3.358-7.5,7.5v24.564H31.032V195.882c0-4.142-3.358-7.5-7.5-7.5    s-7.5,3.358-7.5,7.5v265.046H7.5c-4.142,0-7.5,3.358-7.5,7.5s3.358,7.5,7.5,7.5h497c4.142,0,7.5-3.358,7.5-7.5    S508.642,460.927,504.5,460.927z M127.226,140.282v-16.548c0-0.285,0.231-0.516,0.516-0.516h48.977    c0.554,5.898,1.756,11.608,3.53,17.064H127.226z M256,180.363c-35.646,0-64.645-29-64.645-64.645s29-64.645,64.645-64.645    s64.645,29,64.645,64.645S291.646,180.363,256,180.363z M335.281,123.218h48.977c0.285,0,0.516,0.231,0.516,0.516v16.548h-53.023    C333.525,134.826,334.728,129.116,335.281,123.218z M480.968,460.927H359.693v-48.609c0-4.142-3.358-7.5-7.5-7.5    s-7.5,3.358-7.5,7.5v48.609H263.5v-89.209h81.193v8.533c0,4.142,3.358,7.5,7.5,7.5s7.5-3.358,7.5-7.5v-8.533h33.097v56.629    c0,4.142,3.358,7.5,7.5,7.5h56.113c4.142,0,7.5-3.358,7.5-7.5v-56.629h17.064V460.927z M248.5,371.718v89.209h-81.194v-89.209    H248.5z M407.791,371.718h41.113v49.129h-41.113V371.718z M151.274,339.653h209.451v17.064H151.274V339.653z M63.097,371.718    h41.113v49.129H63.097V371.718z M31.032,371.718h17.064v56.629c0,4.142,3.358,7.5,7.5,7.5h56.113c4.142,0,7.5-3.358,7.5-7.5    v-56.629h33.097v89.209H31.032V371.718z"/>
		<path d="M256.209,91.153c7.655,0,12.541,3.866,12.541,6.528c0,4.142,3.358,7.5,7.5,7.5s7.5-3.358,7.5-7.5    c0-10.091-8.456-18.35-20.25-20.79v-1.254c0-4.142-3.358-7.5-7.5-7.5s-7.5,3.358-7.5,7.5v1.345    c-11.574,2.548-19.831,10.728-19.831,20.699c0,16.762,15.755,22.014,25.168,25.152c12.759,4.253,14.912,6.806,14.912,10.921    c0,2.662-4.885,6.528-12.541,6.528c-7.655,0-12.54-3.866-12.54-6.528c0-4.142-3.358-7.5-7.5-7.5s-7.5,3.358-7.5,7.5    c0,9.971,8.256,18.151,19.831,20.699v1.345c0,4.142,3.358,7.5,7.5,7.5s7.5-3.358,7.5-7.5v-1.254    c11.794-2.44,20.25-10.699,20.25-20.79c0-16.762-15.755-22.014-25.169-25.151c-12.759-4.253-14.912-6.807-14.912-10.921    C243.669,95.02,248.555,91.153,256.209,91.153z"/>
		<path d="M111.709,307.589c4.142,0,7.5-3.358,7.5-7.5v-72.145c0-4.142-3.358-7.5-7.5-7.5H55.597c-4.142,0-7.5,3.358-7.5,7.5v72.145    c0,4.142,3.358,7.5,7.5,7.5H111.709z M63.097,235.444h41.113v57.145H63.097V235.444z"/>
		<path d="M456.403,307.589c4.142,0,7.5-3.358,7.5-7.5v-72.145c0-4.142-3.358-7.5-7.5-7.5h-56.113c-4.142,0-7.5,3.358-7.5,7.5    v72.145c0,4.142,3.358,7.5,7.5,7.5H456.403z M407.791,235.444h41.113v57.145h-41.113V235.444z"/>
		<path d="M143.774,307.589h224.451c4.142,0,7.5-3.358,7.5-7.5v-72.145c0-4.142-3.358-7.5-7.5-7.5H143.774    c-4.142,0-7.5,3.358-7.5,7.5v72.145C136.274,304.231,139.632,307.589,143.774,307.589z M248.5,292.589h-41.113v-57.145H248.5    V292.589z M263.5,235.444h41.113v57.145H263.5V235.444z M360.726,292.589h-41.113v-57.145h41.113V292.589z M151.274,235.444    h41.113v57.145h-41.113V235.444z"/>
	</g>
</g>















</svg>
